<?xml version="1.0" encoding="utf-8"?>
<!-- Generator: Adobe Illustrator 19.0.0, SVG Export Plug-In . SVG Version: 6.00 Build 0)  -->
<svg version="1.1" id="Layer_1" xmlns="http://www.w3.org/2000/svg" xmlns:xlink="http://www.w3.org/1999/xlink" x="0px" y="0px"
	 viewBox="0 0 90.9 37.4" style="enable-background:new 0 0 90.9 37.4;" xml:space="preserve">
<style type="text/css">
	.st0{fill-rule:evenodd;clip-rule:evenodd;fill:#FFFFFF;}
</style>
<g>
	<path id="XMLID_10_" class="st0" d="M0,35.5C0,23.7,0.1,11.8,0.1,0c0.4,0,0.7,0,1.1,0c0.5,0.9,1,1.7,1.5,2.6c0,3.4,0,6.8,0,10.2
		c7.1-7.2,15.2-2.1,18.2,1.8s2.5,14.8-2,19.1C14.3,38,6.9,38.5,0,35.5L0,35.5z M18.1,30c-2.9,4.3-8.3,5.7-15.3,3.5l0-17.8
		c7.5-8.2,15-3.1,16.5,1.4C20.9,21.6,21,25.7,18.1,30L18.1,30z"/>
	<path id="XMLID_9_" class="st0" d="M35.9,9.2c6.7,0,12.2,6.3,12.2,14.1c0,7.8-5.5,14.1-12.2,14.1c-6.7,0-12.2-6.3-12.2-14.1
		C23.7,15.5,29.2,9.2,35.9,9.2L35.9,9.2z M35.9,11.9c5.3,0,9.6,5.1,9.6,11.4c0,6.3-4.3,11.4-9.6,11.4c-5.3,0-9.6-5.1-9.6-11.4
		C26.3,17,30.6,11.9,35.9,11.9L35.9,11.9z"/>
	<path id="XMLID_8_" class="st0" d="M54.5,37.3l-9.3,0l11.1-28l8,0l11,27.7l-8.8,0l2.8-4.8l-17.7,0L54.5,37.3L54.5,37.3z M55.1,31.8
		l5.2-15.1l4.3,11.4L55.1,31.8L55.1,31.8z"/>
	<path id="XMLID_1_" class="st0" d="M77.2,2.7c0,2.2,0,4.3,0,6.5c-2,0-4.1,0-6.1,0c-0.8,0.8-1.6,1.6-2.4,2.4c2.8,0,5.5,0,8.3,0
		c0,6.5,0,13,0,19.5c0.4,3.8,2.1,5.6,5.3,6.1c3.2,0.5,5.4,0.6,8.6-1c0-1,0-2,0-2.9c-2,1.2-4.4,1.7-7.3,1.4c-2.2-0.2-3.3-1.7-3.3-4.3
		c0-6.2,0-12.4,0-18.6c3,0,6.1,0,9.1,0c0-0.7,0-1.5,0-2.2c-2.9,0-5.9,0-8.8,0c0-3.1,0-6.1,0-9.2c-0.3,0-0.6,0-0.9,0
		C78.7,1,78,1.7,77.2,2.7L77.2,2.7z"/>
</g>
</svg>
