<?xml version="1.0" encoding="utf-8"?>
<!-- Generator: Adobe Illustrator 19.0.0, SVG Export Plug-In . SVG Version: 6.00 Build 0)  -->
<svg version="1.1" id="Layer_1" xmlns="http://www.w3.org/2000/svg" xmlns:xlink="http://www.w3.org/1999/xlink" x="0px" y="0px"
	 viewBox="0 0 101.9 34.5" style="enable-background:new 0 0 101.9 34.5;" xml:space="preserve">
<style type="text/css">
	.st0{fill:#FFFFFF;}
</style>
<g>
	<path id="XMLID_10_" class="st0" d="M100.6,19.4c-1.4-0.4-1.9-1.2-1.6-2.6c0.5-3.1,1.2-6.4,1.7-9.7c0.4-2.3,0.8-4.6,1.2-7.1
		c-0.1,0-0.3,0-0.3,0c-3.3,0-6.4,0-9.7,0.1c-0.7,0-1.5,0.1-2.2,0.3c-3.5,0.8-5.4,3.3-6.2,6.6c-0.8,3.5-1.3,7.1-1.9,10.6
		c-0.4,3.1,1.1,5.4,4.1,6.4c1.4,0.4,2.7,0.3,4.1,0.4c1.6,0,2.9-0.6,3.9-1.7c0.3-0.4,0.5-0.7,0.9-1.1c1.4,1.8,3.3,2.4,5.5,2.6
		c0.1-1.5,0.4-2.9,0.7-4.2C101,19.8,100.7,19.4,100.6,19.4z M95.8,7.8c-0.5,3-1.1,6-1.6,9.1c-0.4,1.9-1.5,2.9-3.4,2.9
		c-1,0-1.8,0-2.6-0.1c-1.4-0.3-2-1.1-1.8-2.3c0.5-3.4,1.1-6.7,1.7-10C88.4,6,89.6,5,91.1,5c1.5,0,3,0,4.5,0c0.1,0,0.3,0,0.5,0
		C96,5.8,95.9,6.6,95.8,7.8z"/>
	<path id="XMLID_9_" class="st0" d="M82.4,5.2c0-2-1-3.4-2.9-4.3c-1.1-0.5-2.2-0.8-3.4-0.8c-3.1,0-6.1,0-9.3,0.1c-0.1,0-0.4,0-0.5,0
		c-0.1,0.7-0.3,1.5-0.4,2.2C65,7.5,64,12.8,63.1,18c-0.1,0.5,0.1,1.2-0.5,1.4c-0.4,0.1-1-0.1-1.5-0.3c-0.3-0.1-0.4-0.3-0.7-0.4
		c-0.5-0.4-0.8-0.9-0.7-1.6c0.9-4.6,1.7-9.3,2.5-13.9c0.1-1.1,0.4-2,0.5-3.1c-0.3,0-0.4,0-0.5,0c-3.1,0-6.3,0-9.4,0.1
		c-0.5,0-1.1,0-1.6,0.1c-3.8,0.7-6,3.3-6.8,6.8c-0.8,4.1-1.6,8.2-2,12.3c-1,0.1-2.5-0.4-2.9-1.2c-0.1-0.3-0.3-0.7-0.3-1.1
		c0.7-4,1.3-7.8,2-11.7c0.3-1.8,0.7-3.4,0.9-5.2c-0.3,0-0.4,0-0.5,0c-3.1,0-6.3,0-9.4,0.1c-0.5,0-1.1,0-1.6,0.1
		c-3.8,0.8-6,3.3-6.8,6.8c-0.8,3.5-1.3,7.2-1.9,10.8c-0.5,2.7,1,5,3.6,6c1.5,0.5,3,0.5,4.5,0.5c1.6,0,2.9-0.6,3.9-1.7
		c0.3-0.4,0.5-0.7,0.8-1c0.8,0.7,1.4,1.4,2.2,1.8c1,0.5,2,0.8,3.3,0.8c1.6,0,1.6,0.1,1.9-1.5c0.1-0.5,0.3-1.2,0.4-1.9
		c1,1.9,2.6,2.8,4.5,3.2c1.1,0.1,2.3,0,3.4,0.1c1.6,0.1,2.9-0.6,3.9-1.7c0.3-0.3,0.7-0.5,0.9-1c0,0.1,0.1,0.3,0.1,0.3
		c0.8,1.4,2.2,2,3.7,2.2c2.5,0.3,4.8,0.2,7.2,0.2c0.1,0,0.4-0.3,0.4-0.4c0.9-5.3,1.9-10.8,2.8-16.1c0.4-1.6,1.5-2.7,3.3-2.7
		c1,0,1.8,0,2.6,0c1.4,0,2.2,0.9,1.9,2.2c-0.8,4.4-1.5,8.7-2.3,13.1c-0.3,1.2-0.4,2.6-0.7,4c1.6,0,3.1,0,4.6-0.3
		c0,0,0.3-0.1,0.3-0.3c0.1-0.1,0.1-0.4,0.1-0.7c0.8-4.2,1.6-8.6,2.3-12.8C82,8.6,82.4,7,82.4,5.2z M35.8,8.7
		c-0.4,2.9-0.9,5.6-1.5,8.5c-0.3,1.8-1.3,2.7-3.3,2.7c-0.7,0-1.4,0-2,0c-1.8,0-2.6-0.9-2.3-2.6c0.5-3.1,1.2-6.4,1.7-9.5
		c0.3-1.5,1.5-2.5,3-2.5c1.5,0,3.1,0,4.6,0c0,0,0.1,0,0.3,0C36.2,6.4,36,7.5,35.8,8.7z M56.5,9.2l-1.5,7.8c-0.3,1.8-1.5,2.7-3.3,2.7
		c-0.8,0-1.6,0.1-2.5,0c-1.5-0.1-2.2-0.9-1.9-2.4c0.5-3.1,1.2-6.4,1.7-9.5c0.3-1.5,1.4-2.5,3-2.5c1.5,0,3,0,4.6,0c0,0,0.1,0,0.3,0
		C56.8,6.6,56.5,7.9,56.5,9.2z"/>
	<path id="XMLID_8_" class="st0" d="M23.4,0.5c-1.4,0-2.6,0-3.8,0c-2.3,0-4.6,0-6.9,0.2C8.7,1,5.7,3.7,5,7.6
		c-0.7,3.1-1.2,6.3-1.7,9.4c-0.3,1.2-0.4,2.3-0.1,3.5c0.6,2.2,2.3,3.8,4.9,4.1c1.8,0.1,3.4,0.1,5.2,0.1c0.3,0,0.7,0,1.1,0
		c-0.1,1-0.3,1.6-0.4,2.5c-0.4,1.8-1.3,2.6-3.3,2.6c-2.5,0-5,0-7.5,0c-0.3,0-0.7,0.1-0.8,0.3c-0.8,1.4-1.6,2.9-2.4,4.2
		c0,0.1,0,0.1,0,0.3l0.1,0c2.9,0,5.7,0,8.6,0c0.8,0,1.6,0,2.5-0.2c3.3-0.4,6.7-2.5,7.5-6.7c0.7-3.1,1.2-6.3,1.7-9.4
		c0.9-5,1.7-10,2.7-15C23.1,2.4,23.3,1.5,23.4,0.5z M17.3,7.8c-0.7,3.8-1.3,7.6-2,11.5c-0.1,0.7-0.3,0.8-0.9,0.8
		c-0.7-0.1-1.2,0-1.9-0.1c-0.8,0-1.8,0.1-2.9,0c-1.1-0.1-1.8-0.9-1.6-2c0.3-1.6,0.5-3.1,0.8-4.8C9,11.5,9.4,9.7,9.7,7.9
		c0.4-1.6,1.5-2.6,3.1-2.6c0.8,0,1.6,0,2.5,0C16.8,5.4,17.6,6.3,17.3,7.8z"/>
</g>
</svg>
