<?xml version="1.0" encoding="utf-8"?>
<!-- Generator: Adobe Illustrator 19.0.0, SVG Export Plug-In . SVG Version: 6.00 Build 0)  -->
<svg version="1.1" id="Layer_1" xmlns="http://www.w3.org/2000/svg" xmlns:xlink="http://www.w3.org/1999/xlink" x="0px" y="0px"
	 viewBox="0 0 117.2 17.3" style="enable-background:new 0 0 117.2 17.3;" xml:space="preserve">
<style type="text/css">
	.st0{fill-rule:evenodd;clip-rule:evenodd;fill:#FFFFFF;}
</style>
<g>
	<path id="XMLID_17_" class="st0" d="M116.4,15.6c0-0.4-0.3-0.4-0.6-0.4l-0.5,0l0,1.5l0.3,0l0-0.6l0.3,0l0.2,0.6l0.3,0l-0.3-0.7
		C116.2,15.9,116.4,15.9,116.4,15.6z M115.9,15.8l-0.3,0l0-0.4l0.3,0c0.1,0,0.2,0.1,0.2,0.2C116.1,15.7,116,15.8,115.9,15.8z"/>
	<path id="XMLID_16_" class="st0" d="M115.8,14.5c-0.8,0-1.4,0.7-1.4,1.4c0,0.8,0.7,1.4,1.4,1.4c0.8,0,1.4-0.6,1.4-1.4
		C117.2,15.2,116.6,14.5,115.8,14.5z M115.8,17.1c-0.7,0-1.2-0.5-1.2-1.2c0-0.7,0.5-1.2,1.2-1.2c0.7,0,1.2,0.5,1.2,1.2
		C117,16.6,116.5,17.1,115.8,17.1z"/>
	<path id="XMLID_8_" class="st0" d="M23.7,7.8c-0.8,0-6.7,0-7.9,0c-1.2,0-1.2,0.9-1.2,1.4c0,0.5,0.2,1.1,0.9,1.1c0.8,0,5.4,0,5.4,0
		s0,1.6,0,1.9c0,0.3-0.8,0.8-1.4,1c-0.7,0.2-1.4,0.4-2.7,0.4c-1.3,0-9.1,0-10.1,0s-3.1-0.5-3.1-1.5c0-1,0-7.4,0-8
		c0-0.5,0.5-0.9,0.8-1.1c0.4-0.2,0.8-0.3,1.6-0.4C7,2.5,8,2.4,8.7,2.4c0.7,0,2.8,0,3.4,0c0.6,0,1.1-0.2,1.1-1.1
		c0-0.9-0.8-1.2-1.4-1.2c-0.7,0-3.9,0-4.7,0C6.6,0.1,5.8,0.2,5,0.4C4.5,0.5,3.9,0.6,3.5,0.7C2.7,1,2.1,1.2,1.4,1.7
		C0.7,2.1,0,2.9,0,3.8c0,0.9,0,7.7,0,8.8c0,0.6,0.8,1.5,1.3,1.9c0.5,0.4,1.6,0.9,2.7,1.2C5.1,15.8,6.4,16,7.7,16s9.3,0,10.1,0
		c0.8,0,2-0.2,2.7-0.4c0.6-0.2,2-0.6,2.8-1.3c0.8-0.7,1.2-1.5,1.2-2.1c0-0.6,0-3.4,0-3.7C24.5,8.3,24.5,7.8,23.7,7.8z"/>
	<path id="XMLID_15_" class="st0" d="M46.4,3.9c-1.1-0.4-2.3-0.6-3.5-0.6c-1.2,0-7.2,0-7.8,0c-0.7,0-2,0.2-2.8,0.4
		c-0.8,0.2-1.6,0.6-2.4,0.9C29,5,28,6.2,28,7.1s0,4.2,0,5.3c0,0.5,0.5,1.2,1.1,1.7c0.6,0.5,1.6,1,2.7,1.2c1.1,0.3,2.4,0.5,3.6,0.5
		c1.2,0,6.7,0,7.2,0c0.5,0,2.7-0.3,3.7-0.6c1-0.3,1.8-0.8,2.2-1.1c0.4-0.4,0.9-0.9,0.9-1.7c0-0.8,0-5.1,0-5.6c0-0.5-0.4-1.2-0.8-1.7
		C48.3,4.7,47.5,4.2,46.4,3.9z M45.9,12c0,0.5-0.4,0.8-0.8,0.9c-0.4,0.1-1.6,0.6-2.3,0.6s-6.5,0-7.6,0c-1,0-2.1-0.2-2.5-0.4
		c-0.5-0.2-1.2-0.6-1.2-1.1c0-0.5,0-4.6,0-4.6c0-0.5,0.6-1,0.9-1.1c0.4-0.2,1.7-0.6,2.5-0.6c0.8,0,6.4,0,7.2,0
		c0.9,0,1.8,0.1,2.4,0.3c0.6,0.2,1.3,0.7,1.3,1C45.9,7.2,45.9,11.5,45.9,12z"/>
	<path id="XMLID_14_" class="st0" d="M74.8,0.6c-1.6-0.5-3.6-0.6-5-0.6c-1.4,0-15.3,0-15.7,0C53.8,0,52.9,0,53,1
		c0,0.9,0,13.7,0,14.1c0,0.2,0.1,0.8,1.8,0.8c1.7,0,1.8-0.6,1.8-1c0-0.3,0-4.8,0-4.8s12,0,13.1,0c1.2,0,3.3-0.3,4.1-0.5
		c0.8-0.2,1.6-0.5,2.4-1c0.8-0.5,1.2-1.2,1.3-1.6c0.1-0.4,0.2-1.1,0.2-2.3c0-1.2-0.1-2-0.3-2.4C77.4,2.1,76.5,1.1,74.8,0.6z M74.1,6
		c0,0.3-0.5,0.9-1.1,1.2c-0.7,0.3-1.9,0.5-2.6,0.5c-0.7,0-13.9,0-13.9,0l0-5.5c0,0,12.6,0,13.6,0c1,0,2,0.1,2.6,0.2
		c0.5,0.1,1.4,0.6,1.4,1C74.1,3.9,74.1,5.7,74.1,6z"/>
	<path id="XMLID_3_" class="st0" d="M90,3.2c-0.5,0-1.5,0-2.4,0c-0.9,0-2.6,0.3-3.1,0.4c-0.6,0.1-1.6,0.5-2.3,0.9
		c-0.7,0.5-1.3,1.5-1.3,2.3c0,0.8,0,7.7,0,8.2c0,0.2,0.3,0.8,1.7,0.8c1.4,0,1.8-0.4,1.8-1c0-0.6,0-7.3,0-7.9c0-0.6,1.1-1.1,1.6-1.2
		c0.5-0.1,0.9-0.2,1.5-0.2c0.6,0,1.8,0,2.6,0c0.8,0,1.1-0.4,1.1-1.1C91.1,3.7,90.5,3.2,90,3.2z"/>
	<path id="XMLID_13_" class="st0" d="M114.9,9.8c0-0.9,0-2.1,0-3.1c0-1-0.8-2-2-2.6c-1.2-0.7-3.6-0.9-4.4-0.9c-0.8,0-2.3,0-4,0
		c-1.8,0-3.1,0-3.6,0c-0.5,0-1.4,0.1-2.4,0.3c-1,0.2-2.1,0.5-3.3,1.2c-1.2,0.7-1.7,1.7-1.7,2.5c0,0,0,4.4,0,4.9
		c0,0.5,0.5,1.4,0.8,1.7c0.3,0.3,1.6,1.2,2.8,1.5c1.3,0.3,3.1,0.6,4.7,0.5c1.6,0,4.8,0,6.4,0c1.6,0,4.1-0.6,5.2-1.4
		c1.1-0.8,1.5-1.4,1.5-2.4S114.9,10.7,114.9,9.8z M111.4,11.9c0,0.3-0.3,0.7-1,1c-0.8,0.3-1.7,0.5-2.4,0.5c-0.7,0-6.1,0-7.1,0
		c-1,0-1.8-0.1-2.5-0.3c-0.6-0.2-1.6-0.7-1.6-1.2c0-0.5,0-4.5,0-4.5c0-0.6,0.4-1.1,0.9-1.3c0.6-0.2,2.1-0.6,2.8-0.6c0.8,0,6,0,6.8,0
		c0.8,0,2,0.1,2.6,0.3c0.6,0.2,1.3,0.7,1.3,1.1C111.4,7.4,111.4,11.6,111.4,11.9z"/>
</g>
</svg>
