<?xml version="1.0" encoding="utf-8"?>
<!-- Generator: Adobe Illustrator 19.0.0, SVG Export Plug-In . SVG Version: 6.00 Build 0)  -->
<svg version="1.1" id="Layer_1" xmlns="http://www.w3.org/2000/svg" xmlns:xlink="http://www.w3.org/1999/xlink" x="0px" y="0px"
	 viewBox="0 0 105 32.9" style="enable-background:new 0 0 105 32.9;" xml:space="preserve">
<style type="text/css">
	.st0{fill-rule:evenodd;clip-rule:evenodd;fill:#FFFFFF;}
</style>
<g>
	<path id="XMLID_9_" class="st0" d="M0.1,6.4c0-0.7,0.5-1.1,1.1-1.1l10.7,0c3.3,0.4,5.6,2,5.8,6.4l0,6c0,0.9-0.1,1.6-0.3,2.5
		c-0.9,2.9-2.9,4.3-6,4.5l-4.6,0c0,2.4,0,4.9,0,7.3c0,0.5-0.5,0.8-1,0.8c-1.6,0-3.2,0-4.8,0c-0.6,0-1-0.3-1-1L0.1,6.4L0.1,6.4z
		 M6.9,12.1l2.9,0c0.6,0,1.2,0.5,1.2,1.2l0,3.4c0,0.6-0.5,1.2-1.2,1.2l-2.9,0L6.9,12.1L6.9,12.1z"/>
	<path id="XMLID_8_" class="st0" d="M23,5.4l7.5,0c4.4,0.3,6.8,2.6,6.7,7.3l0,17.7c0,1.4-1.4,2.4-2.6,2.4l-9.8,0
		c-3,0-4.9-2.3-5.4-4.6c-0.5-2.2-0.1-4.8-0.1-7.1c0-3.4,2.3-6.9,6.1-6.9l4,0c1.2-0.1,1.1-2.6,0-2.5l-6.2,0c-0.6,0-1.1-0.3-1.1-1
		c0-1.5,0-3.1,0-4.6C21.9,5.5,22.4,5.4,23,5.4L23,5.4z M27.1,20.6l2.3,0c0.5,0,1,0.4,1,1l0,4c0,0.5-0.4,1-1,1l-2.3,0
		c-0.5,0-1-0.4-1-1l0-4C26.2,21.1,26.6,20.6,27.1,20.6L27.1,20.6z"/>
	<path id="XMLID_3_" class="st0" d="M39.5,6.6l0,11.2c0.3,3.5,3.4,6.1,6.8,6.1l3.2,0c1.3,0,1.2,2.2,0,2.2l-6.8,0c-0.7,0-1,0.4-1,1
		l0,4.9c0,0.5,0.4,0.9,0.9,0.9l6.3,0c5.3,0,8.3-2.5,8.3-8.2l0-18.5c0-0.6-0.4-0.8-0.7-0.8l-5.3,0c-0.5,0-0.8,0.5-0.8,0.9l0,10.1
		c0,0.4-0.2,0.7-0.6,0.7l-2.5,0c-0.6,0-0.9-0.3-0.9-0.9l0-9.8c0-0.6-0.3-1.1-1-1.1c-1.7,0-3.4,0-5.1,0C39.6,5.3,39.5,5.9,39.5,6.6
		L39.5,6.6z"/>
	<path id="XMLID_2_" class="st0" d="M59.9,11.2l0-4.8c0-0.5,0.4-0.9,0.9-0.9l1.2,0c3-0.6,3.7-2.4,5.5-4.4c1.1-1.2,2.1-1.5,2.8-0.2
		l0,4.6l2.7,0c0.5,0,0.9,0.4,0.9,0.9l0,4.8c0,0.5-0.4,0.9-0.9,0.9l-2.7,0l0,19.8c0,0.5-0.4,0.9-0.9,0.9l-4.8,0
		c-0.5,0-0.9-0.4-0.9-0.9l0-19.8l-2.8,0C60.3,12.1,59.9,11.7,59.9,11.2L59.9,11.2z"/>
	<path id="XMLID_1_" class="st0" d="M94,31.6c0,0.6-0.5,1.2-1.2,1.2l-4.5,0c-0.7,0-1.2-0.5-1.2-1.2l0-14.1l0-4.1c0-2-3.9-2.3-3.9,0
		l0,18.2c0,0.6-0.5,1.2-1.2,1.2l-4.5,0c-0.6,0-1.2-0.5-1.2-1.2l0-25.2c0-0.6,0.5-1.2,1.2-1.2l4.5,0c0.6,0,1.2,0.5,1.2,1.2l0,0.3
		c2.6-2.5,7.2-2.1,9.7,0.5c4.6-5.3,12.4-0.6,12.1,5.2c0,6.4-0.1,12.7-0.1,19.1c0,0.6-0.5,1.2-1.2,1.2l-4.5,0c-0.6,0-1.2-0.5-1.2-1.2
		c0-6.1,0-12,0-18c-0.3-2.5-4.1-1.9-4.1,0C94,19.6,94.1,25.6,94,31.6L94,31.6z"/>
</g>
</svg>
