<?xml version="1.0" encoding="utf-8"?>
<!-- Generator: Adobe Illustrator 19.0.0, SVG Export Plug-In . SVG Version: 6.00 Build 0)  -->
<svg version="1.1" id="Layer_1" xmlns="http://www.w3.org/2000/svg" xmlns:xlink="http://www.w3.org/1999/xlink" x="0px" y="0px"
	 viewBox="0 0 110.3 92.8" style="enable-background:new 0 0 110.3 92.8;" xml:space="preserve">
<style type="text/css">
	.st0{fill:#FFFFFF;}
</style>
<g>
	<polyline id="XMLID_88_" class="st0" points="97.3,4.4 99.8,5.9 100.1,5.4 100.4,4.9 97.9,3.4 97.6,3.9 97.3,4.4 	"/>
	<polyline id="XMLID_87_" class="st0" points="97.6,10.9 100.6,5.7 100.1,5.5 99.7,5.2 96.6,10.3 97.1,10.6 97.6,10.9 	"/>
	<polyline id="XMLID_86_" class="st0" points="96.9,0.6 96.5,10.6 97.1,10.6 97.6,10.6 98.1,0.6 97.5,0.6 96.9,0.6 	"/>
	<polyline id="XMLID_85_" class="st0" points="97.2,1.1 102.9,4.4 103.2,3.9 103.5,3.4 97.8,0.1 97.5,0.6 97.2,1.1 	"/>
	<polyline id="XMLID_84_" class="st0" points="105.3,7.8 102.8,6.3 102.5,6.8 102.2,7.3 104.7,8.8 105,8.3 105.3,7.8 	"/>
	<polyline id="XMLID_83_" class="st0" points="99.9,12.2 102.9,7.1 102.4,6.8 101.9,6.5 98.9,11.6 99.4,11.9 99.9,12.2 	"/>
	<polyline id="XMLID_82_" class="st0" points="107.6,6.2 99.1,11.5 99.7,12.5 108.2,7.2 107.9,6.7 107.6,6.2 	"/>
	<polyline id="XMLID_81_" class="st0" points="108.2,6.2 102.5,2.8 102.2,3.3 101.9,3.8 107.6,7.2 107.9,6.7 108.2,6.2 	"/>
	<polyline id="XMLID_80_" class="st0" points="86.3,23.4 88.7,24.8 89,24.3 89.3,23.8 86.9,22.4 86.6,22.9 86.3,23.4 	"/>
	<polyline id="XMLID_79_" class="st0" points="91.6,18.9 88.6,24 89.1,24.3 89.6,24.6 92.6,19.5 92.1,19.2 91.6,18.9 	"/>
	<polyline id="XMLID_78_" class="st0" points="83.9,24.9 92.4,19.6 92.1,19.1 91.8,18.6 83.3,23.9 83.6,24.4 83.9,24.9 	"/>
	<polyline id="XMLID_77_" class="st0" points="83.3,25 89,28.3 89.3,27.8 89.6,27.3 83.9,24 83.6,24.5 83.3,25 	"/>
	<polyline id="XMLID_76_" class="st0" points="94.2,26.7 91.7,25.2 91.4,25.7 91.1,26.2 93.6,27.7 93.9,27.2 94.2,26.7 	"/>
	<polyline id="XMLID_75_" class="st0" points="93.9,20.2 90.9,25.4 91.4,25.7 91.8,25.9 94.9,20.8 94.4,20.5 93.9,20.2 	"/>
	<polyline id="XMLID_74_" class="st0" points="94.6,30.5 95,20.5 94.5,20.5 93.9,20.5 93.4,30.5 94,30.5 94.6,30.5 	"/>
	<polyline id="XMLID_73_" class="st0" points="94.2,30 88.6,26.7 88.3,27.2 88,27.7 93.7,31 94,30.5 94.2,30 	"/>
	<polyline id="XMLID_72_" class="st0" points="97.6,27.7 100.1,26.3 99.8,25.8 99.5,25.2 97,26.6 97.3,27.2 97.6,27.7 	"/>
	<polyline id="XMLID_71_" class="st0" points="96.5,20.7 99.4,26 99.9,25.7 100.3,25.4 97.5,20.2 97,20.5 96.5,20.7 	"/>
	<polyline id="XMLID_70_" class="st0" points="97.7,30.5 97.5,20.5 96.9,20.5 96.3,20.5 96.5,30.5 97.1,30.5 97.7,30.5 	"/>
	<polyline id="XMLID_69_" class="st0" points="97.4,31 103.2,27.8 102.9,27.3 102.6,26.8 96.9,30 97.1,30.5 97.4,31 	"/>
	<polyline id="XMLID_68_" class="st0" points="104.5,22.5 102,23.9 102.3,24.4 102.5,24.9 105,23.6 104.8,23 104.5,22.5 	"/>
	<polyline id="XMLID_67_" class="st0" points="98.8,19.5 101.7,24.7 102.2,24.4 102.6,24.2 99.8,19 99.3,19.2 98.8,19.5 	"/>
	<polyline id="XMLID_66_" class="st0" points="108,24.2 99.6,18.7 99.3,19.1 99,19.6 107.4,25.1 107.7,24.6 108,24.2 	"/>
	<polyline id="XMLID_65_" class="st0" points="107.4,24.2 101.6,27.4 101.9,27.9 102.2,28.4 108,25.2 107.7,24.7 107.4,24.2 	"/>
	<polyline id="XMLID_64_" class="st0" points="85.4,19.8 85.4,17 84.2,17 84.3,19.9 84.8,19.8 85.4,19.8 	"/>
	<polyline id="XMLID_63_" class="st0" points="90.8,16.4 84.8,16.4 84.8,16.9 84.9,17.5 90.8,17.5 90.8,16.4 	"/>
	<polyline id="XMLID_62_" class="st0" points="82.3,22.2 91.1,17.5 90.8,17 90.6,16.5 81.8,21.2 82.1,21.7 82.3,22.2 	"/>
	<polyline id="XMLID_61_" class="st0" points="82.6,21.7 82.5,15.1 81.4,15.1 81.4,21.7 82,21.7 82.6,21.7 	"/>
	<polyline id="XMLID_60_" class="st0" points="84.2,11.3 84.2,14.2 84.8,14.2 85.4,14.2 85.4,11.3 84.8,11.3 84.2,11.3 	"/>
	<polyline id="XMLID_59_" class="st0" points="90.8,13.7 84.8,13.8 84.8,14.3 84.8,14.9 90.8,14.8 90.8,13.7 	"/>
	<polyline id="XMLID_58_" class="st0" points="81.7,10.1 90.6,14.7 90.8,14.2 91.1,13.7 82.2,9.1 82,9.6 81.7,10.1 	"/>
	<polyline id="XMLID_57_" class="st0" points="81.3,9.6 81.4,16.3 81.9,16.2 82.5,16.2 82.5,9.6 81.3,9.6 	"/>
	<polyline id="XMLID_56_" class="st0" points="93.6,0.1 87.9,3.5 88.2,3.9 88.5,4.4 94.2,1.1 93.9,0.6 93.6,0.1 	"/>
	<polyline id="XMLID_55_" class="st0" points="93.6,3.4 91.1,4.9 91.4,5.4 91.7,5.9 94.2,4.4 93.9,3.9 93.6,3.4 	"/>
	<polyline id="XMLID_54_" class="st0" points="94.9,10.3 91.8,5.2 91.4,5.5 90.9,5.8 93.9,10.9 94.4,10.6 94.9,10.3 	"/>
	<polyline id="XMLID_53_" class="st0" points="93.4,0.6 93.9,10.6 94.5,10.6 95.1,10.5 94.5,0.6 93.9,0.6 93.4,0.6 	"/>
	<polyline id="XMLID_52_" class="st0" points="86.8,8.8 89.3,7.3 89,6.8 88.7,6.3 86.2,7.8 86.5,8.3 86.8,8.8 	"/>
	<polyline id="XMLID_51_" class="st0" points="92.6,11.7 89.6,6.5 89.1,6.8 88.6,7.1 91.7,12.2 92.1,11.9 92.6,11.7 	"/>
	<polyline id="XMLID_50_" class="st0" points="83.3,7.3 91.8,12.5 92.1,12 92.4,11.5 83.9,6.3 83.6,6.8 83.3,7.3 	"/>
	<polyline id="XMLID_49_" class="st0" points="83.9,7.2 89.5,3.9 89.2,3.4 88.9,2.9 83.3,6.3 83.6,6.7 83.9,7.2 	"/>
	<polyline id="XMLID_48_" class="st0" points="109.1,9.8 108.9,16.4 109.5,16.4 110.1,16.4 110.3,9.8 109.7,9.8 109.1,9.8 	"/>
	<polyline id="XMLID_47_" class="st0" points="106.2,11.5 106.1,14.3 106.7,14.4 107.3,14.4 107.3,11.5 106.7,11.5 106.2,11.5 	"/>
	<polyline id="XMLID_46_" class="st0" points="100.7,14.8 106.6,15 106.6,14.4 106.7,13.9 100.7,13.7 100.7,14.3 100.7,14.8 	"/>
	<polyline id="XMLID_45_" class="st0" points="109.4,9.3 100.4,13.7 100.7,14.2 100.9,14.7 109.9,10.3 109.6,9.8 109.4,9.3 	"/>
	<polyline id="XMLID_44_" class="st0" points="107.1,20 107.2,17.1 106.6,17.1 106,17.1 105.9,20 107.1,20 	"/>
	<polyline id="XMLID_43_" class="st0" points="100.6,17.4 106.6,17.6 106.6,17.1 106.6,16.5 100.6,16.3 100.6,16.9 100.6,17.4 	"/>
	<polyline id="XMLID_42_" class="st0" points="109.6,21.4 100.9,16.5 100.6,16.9 100.3,17.4 109,22.4 109.3,21.9 109.6,21.4 	"/>
	<polyline id="XMLID_41_" class="st0" points="109.9,21.9 110.1,15.3 109.5,15.2 108.9,15.2 108.8,21.8 109.3,21.8 109.9,21.9 	"/>
	<path id="XMLID_40_" class="st0" d="M108.4,7c-0.2,0.3-0.6,0.4-0.9,0.2c-0.3-0.2-0.4-0.6-0.2-0.9c0.2-0.3,0.6-0.4,0.9-0.2
		C108.5,6.3,108.6,6.7,108.4,7"/>
	<path id="XMLID_39_" class="st0" d="M98.1,0.9c-0.2,0.3-0.6,0.4-0.9,0.2C96.9,1,96.8,0.6,97,0.3c0.2-0.3,0.5-0.4,0.9-0.2
		C98.2,0.3,98.3,0.7,98.1,0.9"/>
	<path id="XMLID_38_" class="st0" d="M94.4,1c-0.2,0.3-0.6,0.4-0.9,0.2c-0.3-0.2-0.4-0.6-0.2-0.9c0.2-0.3,0.6-0.4,0.9-0.2
		C94.5,0.3,94.6,0.7,94.4,1"/>
	<path id="XMLID_37_" class="st0" d="M100.6,5.8c-0.2,0.3-0.6,0.4-0.8,0.2c-0.3-0.2-0.4-0.6-0.2-0.9c0.2-0.3,0.6-0.4,0.9-0.2
		C100.7,5.1,100.8,5.5,100.6,5.8"/>
	<path id="XMLID_36_" class="st0" d="M103,7.2c-0.2,0.3-0.6,0.4-0.9,0.2c-0.3-0.2-0.4-0.6-0.2-0.9c0.2-0.3,0.6-0.4,0.9-0.2
		C103.1,6.5,103.2,6.9,103,7.2"/>
	<path id="XMLID_35_" class="st0" d="M110.2,10.2c-0.2,0.3-0.6,0.4-0.9,0.2c-0.3-0.2-0.4-0.6-0.2-0.9c0.2-0.3,0.6-0.4,0.9-0.2
		C110.2,9.5,110.3,9.9,110.2,10.2"/>
	<path id="XMLID_34_" class="st0" d="M107.2,14.7c-0.2,0.3-0.5,0.4-0.9,0.2c-0.3-0.2-0.4-0.6-0.2-0.9c0.2-0.3,0.6-0.4,0.9-0.2
		C107.2,14,107.3,14.4,107.2,14.7"/>
	<path id="XMLID_33_" class="st0" d="M107.1,17.5c-0.2,0.3-0.6,0.4-0.9,0.2c-0.3-0.2-0.4-0.6-0.2-0.8c0.2-0.3,0.6-0.4,0.9-0.3
		C107.2,16.8,107.3,17.2,107.1,17.5"/>
	<path id="XMLID_32_" class="st0" d="M109.8,22.1c-0.2,0.3-0.6,0.4-0.9,0.2c-0.3-0.2-0.4-0.6-0.2-0.9c0.2-0.3,0.6-0.4,0.9-0.2
		C109.9,21.4,110,21.8,109.8,22.1"/>
	<path id="XMLID_31_" class="st0" d="M108.2,25c-0.2,0.3-0.6,0.4-0.9,0.2c-0.3-0.2-0.4-0.6-0.2-0.9c0.2-0.3,0.6-0.4,0.9-0.2
		C108.2,24.3,108.3,24.7,108.2,25"/>
	<path id="XMLID_30_" class="st0" d="M97.7,10.8c-0.2,0.3-0.6,0.4-0.9,0.2c-0.3-0.2-0.4-0.6-0.2-0.9c0.2-0.3,0.6-0.4,0.9-0.2
		C97.7,10.1,97.8,10.5,97.7,10.8"/>
	<path id="XMLID_29_" class="st0" d="M95,10.8c-0.2,0.3-0.6,0.4-0.9,0.2c-0.3-0.2-0.4-0.6-0.2-0.9c0.2-0.3,0.6-0.4,0.9-0.2
		C95,10.1,95.1,10.5,95,10.8"/>
	<path id="XMLID_28_" class="st0" d="M92.6,12.2c-0.2,0.3-0.6,0.4-0.9,0.2c-0.3-0.2-0.4-0.5-0.2-0.9c0.2-0.3,0.6-0.4,0.9-0.2
		C92.7,11.5,92.7,11.9,92.6,12.2"/>
	<path id="XMLID_27_" class="st0" d="M91.2,14.5c-0.2,0.3-0.6,0.4-0.9,0.2c-0.3-0.2-0.4-0.6-0.2-0.9c0.2-0.3,0.6-0.4,0.9-0.2
		C91.3,13.8,91.4,14.2,91.2,14.5"/>
	<path id="XMLID_26_" class="st0" d="M91.2,17.3c-0.2,0.3-0.6,0.4-0.9,0.2c-0.3-0.2-0.4-0.6-0.2-0.8c0.2-0.3,0.6-0.4,0.9-0.2
		C91.3,16.6,91.4,17,91.2,17.3"/>
	<path id="XMLID_25_" class="st0" d="M92.5,19.6c-0.2,0.3-0.6,0.4-0.9,0.2c-0.3-0.2-0.4-0.6-0.2-0.9c0.2-0.3,0.6-0.4,0.9-0.2
		C92.6,18.9,92.7,19.2,92.5,19.6"/>
	<path id="XMLID_24_" class="st0" d="M94.9,21c-0.2,0.3-0.6,0.4-0.9,0.2c-0.3-0.2-0.4-0.6-0.2-0.9c0.2-0.3,0.6-0.4,0.9-0.2
		C95,20.3,95.1,20.7,94.9,21"/>
	<path id="XMLID_23_" class="st0" d="M97.5,20.9c-0.2,0.3-0.6,0.4-0.9,0.2c-0.3-0.2-0.4-0.6-0.2-0.9c0.2-0.3,0.6-0.4,0.9-0.2
		C97.6,20.2,97.7,20.6,97.5,20.9"/>
	<path id="XMLID_22_" class="st0" d="M100.1,12.2c-0.2,0.3-0.6,0.4-0.9,0.2c-0.3-0.2-0.4-0.6-0.2-0.9c0.2-0.3,0.6-0.4,0.9-0.2
		C100.1,11.5,100.2,11.9,100.1,12.2"/>
	<path id="XMLID_21_" class="st0" d="M101.4,14.5c-0.2,0.3-0.6,0.4-0.9,0.2c-0.3-0.2-0.4-0.6-0.2-0.9c0.2-0.3,0.6-0.4,0.9-0.2
		C101.4,13.8,101.5,14.2,101.4,14.5"/>
	<path id="XMLID_20_" class="st0" d="M101.3,17.3c-0.2,0.3-0.6,0.4-0.9,0.2c-0.3-0.2-0.4-0.6-0.2-0.9c0.2-0.3,0.6-0.4,0.9-0.2
		C101.4,16.6,101.4,17,101.3,17.3"/>
	<path id="XMLID_19_" class="st0" d="M99.9,19.6c-0.2,0.3-0.6,0.4-0.9,0.2c-0.3-0.2-0.4-0.6-0.2-0.9c0.2-0.3,0.6-0.4,0.9-0.2
		C100,18.9,100.1,19.3,99.9,19.6"/>
	<path id="XMLID_18_" class="st0" d="M102.8,24.7c-0.2,0.3-0.6,0.4-0.9,0.2c-0.3-0.2-0.4-0.6-0.2-0.9c0.2-0.3,0.6-0.4,0.9-0.2
		C102.9,24,103,24.4,102.8,24.7"/>
	<path id="XMLID_17_" class="st0" d="M100.3,26.1c-0.2,0.3-0.5,0.4-0.9,0.2c-0.3-0.2-0.4-0.6-0.2-0.9c0.2-0.3,0.6-0.4,0.9-0.2
		C100.4,25.4,100.5,25.7,100.3,26.1"/>
	<path id="XMLID_16_" class="st0" d="M97.7,30.8c-0.2,0.3-0.6,0.4-0.9,0.2c-0.3-0.2-0.4-0.5-0.2-0.9c0.2-0.3,0.6-0.4,0.9-0.2
		C97.8,30.1,97.9,30.5,97.7,30.8"/>
	<path id="XMLID_15_" class="st0" d="M94.5,30.8c-0.2,0.3-0.6,0.4-0.9,0.2c-0.3-0.2-0.4-0.6-0.2-0.9c0.2-0.3,0.6-0.4,0.9-0.2
		C94.6,30.1,94.7,30.5,94.5,30.8"/>
	<path id="XMLID_14_" class="st0" d="M92,26c-0.2,0.3-0.6,0.4-0.9,0.2c-0.3-0.2-0.4-0.6-0.2-0.9c0.2-0.3,0.6-0.4,0.9-0.2
		C92.1,25.3,92.2,25.7,92,26"/>
	<path id="XMLID_13_" class="st0" d="M89.6,24.6c-0.2,0.3-0.6,0.4-0.9,0.2c-0.3-0.2-0.4-0.5-0.2-0.9c0.2-0.3,0.6-0.4,0.9-0.2
		C89.7,23.9,89.8,24.3,89.6,24.6"/>
	<path id="XMLID_12_" class="st0" d="M82.6,22c-0.2,0.3-0.6,0.4-0.9,0.2c-0.3-0.2-0.4-0.6-0.2-0.9c0.2-0.3,0.6-0.4,0.8-0.2
		C82.7,21.3,82.8,21.7,82.6,22"/>
	<path id="XMLID_11_" class="st0" d="M85.4,17.3c-0.2,0.3-0.6,0.4-0.9,0.2c-0.3-0.2-0.4-0.6-0.2-0.9c0.2-0.3,0.6-0.4,0.9-0.2
		C85.5,16.7,85.6,17.1,85.4,17.3"/>
	<path id="XMLID_10_" class="st0" d="M85.4,14.6c-0.2,0.3-0.6,0.4-0.9,0.2c-0.3-0.2-0.4-0.6-0.2-0.9c0.2-0.3,0.6-0.4,0.9-0.2
		C85.5,13.9,85.6,14.3,85.4,14.6"/>
	<path id="XMLID_9_" class="st0" d="M82.5,10c-0.2,0.3-0.6,0.4-0.9,0.2c-0.3-0.2-0.4-0.6-0.2-0.9C81.6,9,82,8.9,82.3,9.1
		C82.6,9.3,82.7,9.7,82.5,10"/>
	<path id="XMLID_8_" class="st0" d="M84.2,7.1c-0.2,0.3-0.6,0.4-0.9,0.2c-0.3-0.2-0.4-0.6-0.2-0.9c0.2-0.3,0.6-0.4,0.9-0.2
		C84.2,6.4,84.3,6.8,84.2,7.1"/>
	<path id="XMLID_7_" class="st0" d="M89.6,7.2c-0.2,0.3-0.6,0.4-0.9,0.2c-0.3-0.2-0.4-0.5-0.2-0.9c0.2-0.3,0.6-0.4,0.9-0.2
		C89.6,6.5,89.7,6.9,89.6,7.2"/>
	<path id="XMLID_6_" class="st0" d="M92,5.8c-0.2,0.3-0.6,0.4-0.9,0.2c-0.3-0.2-0.4-0.6-0.2-0.9c0.2-0.3,0.6-0.4,0.9-0.2
		C92.1,5.1,92.2,5.5,92,5.8"/>
	<path id="XMLID_5_" class="st0" d="M84.2,24.7C84,25,83.6,25.1,83.3,25c-0.3-0.2-0.4-0.6-0.2-0.9c0.2-0.3,0.6-0.4,0.9-0.2
		C84.3,24,84.3,24.4,84.2,24.7"/>
	<path id="XMLID_4_" class="st0" d="M24.2,68.3c0,6.6,0.2,7.5,4,7.8l2.1,0.2c0.4,0.3,0.3,1.4-0.1,1.6c-3.8-0.1-6.1-0.2-8.8-0.2
		c-2.7,0-5,0.1-9.3,0.2c-0.4-0.2-0.5-1.3,0-1.6l2.4-0.2c3.8-0.3,4.2-1.3,4.1-7.9l-0.1-28c0-1.9,0-2-2-2l-3.7,0
		c-2.9,0-6.6,0.1-8.2,1.6c-1.6,1.4-2.3,2.8-3,4.3c-0.5,0.4-1.5,0.1-1.7-0.4c1.1-2.8,1.9-5.2,2.4-7.7l1.9-1c0.4,2,2.1,1.3,5.2,1.3
		l27.1-0.1c3.6,0,3.3,0.1,4.6-0.7c0.3-0.2,0.9,1.6,1,1.9c-0.7,2.6-0.4,4.9-0.2,6.8c-0.3,0.5-1.4,0.5-1.7,0.1
		c-0.2-1.5-0.7-3.9-1.7-4.6c-1.5-1.1-4.1-1.6-7.8-1.6l-4.8,0c-2,0-1.9,0.1-1.9,2.1L24.2,68.3"/>
	<path id="XMLID_89_" class="st0" d="M63.1,34.5l0.3-0.4l0.7,0c0.2,0.2,0.4,0.3,0.4,0.6l16,38.5c0.9,2.1,1.1,2.4,2.1,3.3
		c0.8,0.3,1.2,0.3,1.8,0.3c0.4,0,0.9,0,1.3-0.1l0,0.8c-0.3,0-0.6,0.1-1,0.1c-0.2,0-5.3-0.3-6.3-0.3c-0.9,0-4.7,0.3-5.5,0.3
		c-1.1,0-1.1,0-1.8-0.1l0-0.9c1.3,0.2,1.6,0.1,3.1,0.1c1.1-0.6,1.4-0.9,1.4-1.9c0-0.2,0-1.2-0.4-2l-6-14.3l-14.2,0l-4.6,11.1
		c-0.4,0.8-1.1,3.1-1.1,4.4c0,1.4,0.6,2,1.2,2.5c0.7,0.2,1.3,0.2,1.8,0.2l1.6,0l0,0.7c-0.5,0.1-0.6,0.1-1.7,0.1
		c-0.7,0-3.9-0.3-4.7-0.3c-1.5,0-3.7,0.3-4.6,0.3c-1,0-1.1,0-1.5-0.1l0-0.9c0.8,0.2,1,0.2,2.5,0.1c0.9-0.6,2.5-1.8,3.8-4.8
		L63.1,34.5 M68.8,57l-6.6-15.5L55.7,57L68.8,57z"/>
	<path id="XMLID_1_" class="st0" d="M86.6,92c6.9-2,7.5-9.9,7.5-14.6l-0.1-36.5c0-2.1,0-5.3-4.2-5.3c-0.5,0-1.1,0-1.7,0.1l0-0.8
		c0.9-0.2,1.7-0.3,2.8-0.3c0.9,0,4.5,0.3,5.3,0.3c1.1,0,5.6-0.3,6.5-0.3c1,0,1.2,0.1,1.8,0.3l0,0.9c-0.5-0.2-1.1-0.2-1.7-0.2
		c-3.6,0-4,2.6-4,4.8l0,36.5c0,4.9-2.6,12.8-12.2,16L86.6,92"/>
</g>
</svg>
