<?xml version="1.0" encoding="utf-8"?>
<!-- Generator: Adobe Illustrator 19.0.0, SVG Export Plug-In . SVG Version: 6.00 Build 0)  -->
<svg version="1.1" id="Layer_1" xmlns="http://www.w3.org/2000/svg" xmlns:xlink="http://www.w3.org/1999/xlink" x="0px" y="0px"
	 viewBox="0 0 94.9 33" style="enable-background:new 0 0 94.9 33;" xml:space="preserve">
<style type="text/css">
	.st0{fill:#FFFFFF;}
</style>
<g>
	<path id="XMLID_6_" class="st0" d="M5.5,23.6c0.4,1.1,1,2,1.7,2.7C7.9,27,8.7,27.6,9.7,28c1,0.4,2,0.6,3.2,0.6
		c1.1,0,2.2-0.2,3.1-0.6c1-0.4,1.8-1,2.5-1.8c0.7-0.8,1.3-1.7,1.7-2.7c0.4-1,0.6-2.2,0.6-3.5l0-20l4.9,0l0,32.4l-4.8,0l0-3
		c-1.1,1.1-2.4,2-3.8,2.6c-1.5,0.6-3,0.9-4.7,0.9c-1.7,0-3.3-0.3-4.8-0.9c-1.5-0.6-2.8-1.5-3.9-2.6c-1.1-1.1-2-2.4-2.6-4
		c-0.6-1.6-1-3.3-1-5.2L0,0l4.9,0l0,20C4.9,21.3,5.1,22.5,5.5,23.6z"/>
	<path id="XMLID_8_" class="st0" d="M34,0l0,11.8c1.1-1.1,2.3-1.9,3.7-2.6c1.4-0.6,3-1,4.6-1c1.7,0,3.3,0.3,4.9,1
		c1.5,0.6,2.8,1.5,3.9,2.6c1.1,1.1,2,2.4,2.6,3.9c0.6,1.5,1,3.1,1,4.8c0,1.7-0.3,3.3-1,4.8c-0.6,1.5-1.5,2.8-2.6,3.9
		c-1.1,1.1-2.4,2-3.9,2.6c-1.5,0.6-3.1,1-4.9,1c-1.7,0-3.2-0.3-4.7-0.9c-1.4-0.6-2.7-1.5-3.8-2.6l0,3l-4.6,0l0-32.4L34,0z
		 M34.6,23.8c0.4,1,1,1.9,1.7,2.6c0.7,0.7,1.6,1.3,2.6,1.8c1,0.4,2.1,0.6,3.2,0.6c1.1,0,2.2-0.2,3.1-0.6c1-0.4,1.8-1,2.6-1.8
		c0.7-0.7,1.3-1.6,1.7-2.6c0.4-1,0.6-2.1,0.6-3.2c0-1.1-0.2-2.2-0.7-3.2c-0.4-1-1-1.9-1.7-2.6c-0.7-0.7-1.6-1.3-2.6-1.7
		c-1-0.4-2-0.6-3.1-0.6c-1.1,0-2.2,0.2-3.1,0.6c-1,0.4-1.9,1-2.6,1.7c-0.7,0.7-1.3,1.6-1.8,2.6c-0.4,1-0.6,2.1-0.6,3.2
		C33.9,21.8,34.2,22.8,34.6,23.8z"/>
	<path id="XMLID_7_" class="st0" d="M57.4,15.9c0.6-1.5,1.5-2.8,2.5-3.9c1.1-1.1,2.4-2,3.8-2.7c1.5-0.6,3.1-1,4.8-1
		c1.7,0,3.3,0.3,4.7,0.9c1.5,0.6,2.7,1.5,3.8,2.6c1,1.1,1.9,2.4,2.5,3.9c0.6,1.5,0.9,3.1,0.9,4.9l0,1.5l-19.2,0
		c0.2,1,0.5,1.8,0.9,2.7c0.5,0.8,1,1.5,1.7,2.1s1.5,1.1,2.4,1.4c0.9,0.3,1.8,0.5,2.8,0.5c2.8,0,5.1-1.2,6.8-3.5l3.4,2.5
		c-1.2,1.6-2.6,2.8-4.3,3.7c-1.7,0.9-3.7,1.3-5.8,1.3c-1.8,0-3.4-0.3-4.9-0.9c-1.5-0.6-2.9-1.5-4-2.6c-1.1-1.1-2-2.4-2.7-3.9
		c-0.6-1.5-1-3.1-1-4.9C56.5,18.9,56.8,17.3,57.4,15.9z M63.9,14c-1.3,1.1-2.2,2.6-2.6,4.4l14.4,0c-0.4-1.8-1.3-3.3-2.6-4.4
		c-1.3-1.1-2.8-1.6-4.6-1.6C66.8,12.4,65.3,12.9,63.9,14z"/>
	<path id="XMLID_1_" class="st0" d="M89.2,14.5c-1,1.1-1.5,2.5-1.5,4.4l0,13.4l-4.7,0l0-23.6l4.6,0l0,2.9c0.6-1,1.3-1.7,2.3-2.3
		c0.9-0.6,2.1-0.8,3.4-0.8l1.6,0l0,4.4l-1.9,0C91.4,12.9,90.2,13.5,89.2,14.5z"/>
</g>
</svg>
